# xmcd CD database file
#
# Track frame offsets:
#	150
#	12640
#	25282
#	37710
#	52757
#	63245
#	75775
#	90282
#	105252
#	117770
#	132755
#	149197
#	161082
#	171735
#	183072
#	193612
#	216475
#	231237
#	244895
#	255965
#	271052
#	282240
#
# Disc length: 3930 seconds
#
# Revision: 1
# Processed by: cddbd v1.5.2PL0 Copyright (c) Steve Scherf et al.
# Submitted via: CDex 1.70beta2
#
DISCID=240f5816
DTITLE=Elmore James - The Very Best of Elmore James
DYEAR=1900
DGENRE=Blues
TTITLE0=Dust My Broom
TTITLE1=Hand in Hand
TTITLE2=Sinful Woman
TTITLE3=I Held My Bay Last Night
TTITLE4=Can't Stop Lovin'
TTITLE5=Sho' Nuff I Do
TTITLE6=1839 Blues
TTITLE7=Sunnyland
TTITLE8=Happy Home
TTITLE9=Wild About You Baby
TTITLE10=Long Tall Woman
TTITLE11=Knocking at Your Door
TTITLE12=Take Me Where You Go
TTITLE13=Rollin' and Tumblin'
TTITLE14=Done Somebody Wrong
TTITLE15=Something Inside of Me
TTITLE16=Stranger Blues
TTITLE17=Anna Lee
TTITLE18=One Way Out
TTITLE19=It Hurt Me Too
TTITLE20=Look On Yonder Wall
TTITLE21=The Sky Is Crying
EXTD=
EXTT0=
EXTT1=
EXTT2=
EXTT3=
EXTT4=
EXTT5=
EXTT6=
EXTT7=
EXTT8=
EXTT9=
EXTT10=
EXTT11=
EXTT12=
EXTT13=
EXTT14=
EXTT15=
EXTT16=
EXTT17=
EXTT18=
EXTT19=
EXTT20=
EXTT21=
PLAYORDER=
